<?xml version="1.0" encoding="UTF-8" standalone="no"?>
<svg
   xmlns:dc="http://purl.org/dc/elements/1.1/"
   xmlns:cc="http://creativecommons.org/ns#"
   xmlns:rdf="http://www.w3.org/1999/02/22-rdf-syntax-ns#"
   xmlns:svg="http://www.w3.org/2000/svg"
   xmlns="http://www.w3.org/2000/svg"
   version="1.1"
   id="svg2"
   viewBox="0 0 130 48.000001"
   height="48"
   width="130">
  <defs
     id="defs4" />
  <metadata
     id="metadata7">
    <rdf:RDF>
      <cc:Work
         rdf:about="">
        <dc:format>image/svg+xml</dc:format>
        <dc:type
           rdf:resource="http://purl.org/dc/dcmitype/StillImage" />
        <dc:title></dc:title>
      </cc:Work>
    </rdf:RDF>
  </metadata>
  <g
     transform="translate(0,-1004.3622)"
     id="layer1">
    <path
       id="path4142"
       d="m 37.385,1036.3622 c -3.52645,0 -6.385,2.9508 -6.385,6.5903 0,3.6395 2.85855,6.5883 6.385,6.5883 1.04431,0 2.03041,-0.258 2.90071,-0.7168 l 3.42744,3.5382 2.28685,-2.2991 -3.31944,-3.4276 c 0.68831,-1.0516 1.08943,-2.3184 1.08943,-3.683 0,-3.6395 -2.85855,-6.5903 -6.38499,-6.5903 z m 0,2.1961 c 2.35096,0 4.25729,1.9678 4.25729,4.3942 0,2.4263 -1.90633,4.3922 -4.25729,4.3922 -2.35098,0 -4.2573,-1.9659 -4.2573,-4.3922 0,-2.4264 1.90632,-4.3942 4.2573,-4.3942 z"
       style="fill:#ffffff;fill-rule:evenodd;stroke:none;stroke-width:1" />
    <path
       id="polygon4170"
       d="m 17.0625,1036.3622 0,1.8223 -3.28125,0 -4.85547,4.8125 -0.0039,0 -1.31446,1.2988 0.00586,0.01 -4.59375,4.5527 -3.01953,0 0,1.6914 3.9375,0 4.98828,-4.9433 0.00781,0.01 1.31446,-1.3008 -0.0098,-0.01 4.59375,-4.5527 2.23047,0 0,1.8222 3.93753,-2.6035 -3.9375,-2.6016 z M 0,1038.1845 l 0,1.5605 3.01953,0 3.27539,3.2461 1.29688,-1.2812 -3.6543,-3.5254 -3.9375,0 z m 11.56055,7.4238 -1.33008,1.3184 3.55078,3.6152 3.28125,0 0,1.8203 3.9375,-2.6016 -3.9375,-2.6015 0,1.6914 -2.23047,0 -3.27148,-3.2422 z" />
    <path
       style="fill:#000000;fill-opacity:1;stroke:none;stroke-opacity:1"
       d="m 103.99156,1052.3534 -9.47697,-22.4372 c -3.75494,7.4057 -7.91513,15.1016 -11.47549,22.4255 -0.0194,0.038 -1.72054,0.016 -1.72136,-0.01 -5.44115,-12.7634 -11.0821,-25.4427 -16.54937,-38.1964 -1.26805,-3.1176 -5.70772,-8.1328 -8.74517,-8.1043 0,-0.3623 -0.0179,-1.1694 -0.0232,-1.6589 l 18.73081,-0.01 -0.0126,1.6371 c -2.19988,0.1031 -6.00062,1.5136 -5.01673,3.9547 2.64108,5.7294 11.98862,27.9281 14.51496,33.5634 1.76359,-3.4683 6.68632,-12.714 8.71243,-16.6232 -1.58871,-3.2772 -6.83999,-15.5149 -8.4143,-18.5976 -1.18734,-2.0089 -4.16676,-2.2551 -6.46198,-2.2895 7.5e-4,-0.5162 0.0283,-0.9112 0.0164,-1.6165 l 16.4676,0.051 0,1.5031 c -2.23008,0.062 -4.34021,0.8959 -3.38519,3.0377 2.21524,4.6224 3.50747,7.912 5.54426,12.1866 0.65055,-1.2518 3.97636,-8.1155 5.56373,-11.7396 0.95971,-2.4073 -0.47278,-3.3109 -4.4851,-3.4193 0.0529,-0.3961 0.0179,-1.1916 0.0514,-1.5706 5.12043,-0.02 12.85203,-0.038 14.2211,-0.058 l 0.007,1.5642 c -2.6137,0.1019 -5.31724,1.502 -6.7298,3.674 l -6.84805,14.2765 c 0.75209,1.8905 7.33515,16.5918 8.02905,18.2222 l 14.15864,-32.846 c -1.00701,-2.6601 -4.22083,-3.254 -5.47725,-3.284 0.009,-0.4229 0.01,-1.0692 0.0134,-1.6075 l 14.78003,0.113 0.0202,0.075 -0.0254,1.4126 c -3.24254,0.098 -5.24837,1.8409 -6.44675,4.6982 -2.94525,6.6876 -11.94908,27.8696 -17.95865,41.6743 -0.008,0.01 -1.57535,0 -1.57886,-0.01 z"
       id="path1873" />
  </g>
</svg>
